<?xml version="1.0" encoding="utf-8"?>
<!-- Generator: Adobe Illustrator 22.1.0, SVG Export Plug-In . SVG Version: 6.00 Build 0)  -->
<svg version="1.1" id="Layer_1" xmlns="http://www.w3.org/2000/svg" xmlns:xlink="http://www.w3.org/1999/xlink" x="0px" y="0px"
	 viewBox="0 0 200 200" style="enable-background:new 0 0 200 200;" xml:space="preserve">
<style type="text/css">
	.st0{fill:none;stroke:#006838;stroke-width:6;stroke-linecap:round;stroke-linejoin:round;stroke-miterlimit:10;}
	.st1{fill:#BE1E2D;}
	.st2{font-family:'CopperplateGothic-Bold';}
	.st3{font-size:32.108px;}
</style>
<polyline class="st0" points="35,78.5 66.6,78.5 71.8,40.6 89,106.6 97.8,55.5 108.7,92.3 115.9,63.3 122.2,76.6 129.3,52 
	135.2,102.5 138.1,69 143.7,78.5 165,78.5 "/>
<g>
	<path d="M165.2,114.2c0.4,0.3,0.8,0.6,1.1,0.9c3.7-8.7,5.6-18.2,5.6-27.8c0-39.6-32.2-71.9-71.9-71.9c-39.6,0-71.9,32.2-71.9,71.9
		c0,9.7,1.9,19.1,5.5,27.8c0.4-0.4,0.7-0.7,1.2-1c0.6-2.4,2.1-4.5,4.2-5.8c-2.3-6.7-3.5-13.8-3.5-21c0-35.5,28.9-64.5,64.5-64.5
		c35.5,0,64.5,28.9,64.5,64.5c0,7.3-1.2,14.4-3.5,21.1C163.1,109.7,164.6,111.8,165.2,114.2z"/>
	<path d="M165.2,114.2c0.5,1.9,0.4,4-0.3,6l-8.4,21.9c-0.8,2-2.1,3.5-3.7,4.6c3.4,0.4,6.9-1.5,8.1-4.9l7.1-18.5
		c1.1-2.9,0.3-6.1-1.7-8.2C166,114.8,165.6,114.5,165.2,114.2z"/>
	<path d="M156.5,142l8.4-21.9c0.8-2,0.8-4.1,0.3-6c-0.6-2.3-2.1-4.4-4.2-5.8c-0.5-0.3-1.1-0.6-1.8-0.9l-2.4-0.9
		c1.1,2.7,1.2,5.9,0.1,8.8l-10.4,27.3c-0.7,1.9-1.9,3.5-3.3,4.7l0.7,0.3c3.1,1.2,6.4,0.7,9-1C154.4,145.6,155.7,144,156.5,142z"/>
	<path d="M43.5,142l-8.4-21.9c-0.8-2-0.8-4.1-0.3-6c-0.4,0.3-0.8,0.6-1.2,1c-2,2.1-2.8,5.2-1.7,8.1l7.1,18.5
		c1.3,3.4,4.7,5.3,8.1,4.9C45.6,145.6,44.3,144,43.5,142z"/>
	<path d="M34.8,114.2c-0.5,1.9-0.4,4,0.3,6l8.4,21.9c0.7,2,2.1,3.5,3.7,4.6c2.6,1.7,5.9,2.2,9,1l0.7-0.3c-1.4-1.3-2.6-2.8-3.3-4.7
		l-10.4-27.3c-1.1-3-1-6.1,0.1-8.8l-2.4,0.9c-0.6,0.2-1.2,0.5-1.8,0.9C36.9,109.7,35.4,111.8,34.8,114.2z"/>
	<path class="st1" d="M43.1,115.4l10.4,27.3c0.7,1.9,1.9,3.5,3.3,4.7c3.3,2.9,8,3.9,12.4,2.3l6.6-2.5c6.2-2.4,9.4-9.4,7-15.6
		l-10.4-27.3c-2.4-6.2-9.4-9.4-15.6-7l-6.6,2.5c-3.3,1.3-5.7,3.8-6.9,6.8C42.1,109.3,42,112.4,43.1,115.4z"/>
	<path class="st1" d="M146.5,142.7l10.4-27.3c1.1-3,1-6.1-0.1-8.8c-1.2-3-3.6-5.6-6.9-6.8l-6.6-2.5c-6.3-2.4-13.2,0.7-15.6,7
		l-10.4,27.3c-2.4,6.2,0.7,13.2,7,15.6l6.6,2.5c4.4,1.7,9.1,0.6,12.4-2.3C144.6,146.2,145.8,144.6,146.5,142.7z"/>
</g>
<text transform="matrix(0.7122 0 0 1 1 181.8066)" class="st2 st3">ONDA</text>
<text transform="matrix(0.7122 0 0 1 80.624 181.8057)" class="st1 st2 st3">MUSICAL</text>
</svg>
